<?xml version="1.0" encoding="UTF-8" standalone="no"?>
<!-- Generator: Adobe Illustrator 19.1.0, SVG Export Plug-In . SVG Version: 6.00 Build 0)  -->

<svg
   xmlns:dc="http://purl.org/dc/elements/1.1/"
   xmlns:cc="http://creativecommons.org/ns#"
   xmlns:rdf="http://www.w3.org/1999/02/22-rdf-syntax-ns#"
   xmlns:svg="http://www.w3.org/2000/svg"
   xmlns="http://www.w3.org/2000/svg"
   xmlns:sodipodi="http://sodipodi.sourceforge.net/DTD/sodipodi-0.dtd"
   xmlns:inkscape="http://www.inkscape.org/namespaces/inkscape"
   version="1.1"
   id="Ebene_1"
   x="0px"
   y="0px"
   viewBox="-289 412.9 16 16"
   style="enable-background:new -289 412.9 16 16;"
   xml:space="preserve"
   sodipodi:docname="manipulator-icon.svg"
   inkscape:version="0.92.2 (5c3e80d, 2017-08-06)"
   inkscape:export-filename="C:\DEV\GIT\master\knime-base\org.knime.base\src\org\knime\base\node\preproc\manipulator\manipulator-icon.png"
   inkscape:export-xdpi="96"
   inkscape:export-ydpi="96"><metadata
     id="metadata35"><rdf:RDF><cc:Work
         rdf:about=""><dc:format>image/svg+xml</dc:format><dc:type
           rdf:resource="http://purl.org/dc/dcmitype/StillImage" /></cc:Work></rdf:RDF></metadata><defs
     id="defs33" /><sodipodi:namedview
     pagecolor="#ffffff"
     bordercolor="#666666"
     borderopacity="1"
     objecttolerance="10"
     gridtolerance="10"
     guidetolerance="10"
     inkscape:pageopacity="0"
     inkscape:pageshadow="2"
     inkscape:window-width="1887"
     inkscape:window-height="1168"
     id="namedview31"
     showgrid="true"
     inkscape:zoom="59"
     inkscape:cx="10.325098"
     inkscape:cy="8.5085534"
     inkscape:window-x="1944"
     inkscape:window-y="0"
     inkscape:window-maximized="0"
     inkscape:current-layer="Ebene_1"><inkscape:grid
       type="xygrid"
       id="grid908" /></sodipodi:namedview><style
     type="text/css"
     id="style2">
	.st0{fill:#FFFFFF;}
	.st1{fill:#4EAF75;enable-background:new    ;}
	.st2{enable-background:new    ;}
	.st3{fill:#F1933B;}
</style><g
     id="g883"><g
       id="g18"><rect
         id="rect4"
         height="3.3"
         width="2.8"
         class="st0"
         y="422.2"
         x="-284" /><rect
         id="rect6"
         height="3.3"
         width="3"
         class="st0"
         y="422.2"
         x="-280.2" /><rect
         id="rect8"
         height="3.1"
         width="3"
         class="st0"
         y="418.1"
         x="-280.2" /><rect
         id="rect10"
         height="3.3"
         width="3"
         class="st0"
         y="422.2"
         x="-288" /><rect
         id="rect12"
         height="3.1"
         width="2.8"
         class="st0"
         y="418.1"
         x="-284" /><rect
         id="rect14"
         height="3.1"
         width="3"
         class="st0"
         y="418.1"
         x="-288" /><path
         id="path16"
         d="M-289,412.9v13.6h12.8v-13.6H-289z M-285,425.5h-3v-3.3h3V425.5z M-288,418.1h3v3.1h-3V418.1z M-281.2,421.2h-2.8v-3.1h2.8   V421.2z M-284,422.2h2.8v3.3h-2.8V422.2z M-280.2,422.2h3v3.3h-3V422.2z M-277.2,421.2h-3v-3.1h3V421.2z" /></g><g
       id="g28"
       class="st2"><g
         id="g26"><rect
           id="rect22"
           height="4.3"
           width="11.9"
           class="st3"
           y="413.3"
           x="-288.6" /><path
           id="path24"
           d="M-276.2,418.1H-289v-5.2h12.8V418.1z M-288.1,417.2h11v-3.4h-11V417.2z" /></g></g></g><g
     id="use32"
     transform="matrix(0.05,0,0,0.05,-281,420.906)"><polygon
       id="polygon851"
       points="0,149.88 38.89,146.34 3.54,110.98 " /><polygon
       id="polygon853"
       points="38.92,146.37 3.57,111.02 114.58,0 149.94,35.35 " /></g></svg>