<svg xmlns="http://www.w3.org/2000/svg" viewBox="0 0 16 16"><title>probability_distribution_creator</title><g id="Layer_2" data-name="Layer 2"><g id="probability_distribution_creator"><polygon points="15.5 12 13 12 13 11.5 13 10.5 13 10 12.5 10 11.5 10 9.5 10 9 10 9 10.5 9 11.5 9 12 9.5 12 11 12 11 12.5 11 13.5 11 14 9.5 14 9 14 9 14.5 9 15.5 9 16 9.5 16 11.5 16 12.5 16 13 16 13 15.5 13 14.5 13 14 15.5 14 16 14 16 13.5 16 12.5 16 12 15.5 12"/><rect y="8" width="3" height="4"/><rect x="9" y="4" width="3" height="5"/><rect x="4.5" width="3" height="12"/></g></g></svg>