<?xml version="1.0" encoding="UTF-8" standalone="no"?>
<!-- Generator: Adobe Illustrator 19.0.0, SVG Export Plug-In . SVG Version: 6.00 Build 0)  -->

<svg
   xmlns:dc="http://purl.org/dc/elements/1.1/"
   xmlns:cc="http://creativecommons.org/ns#"
   xmlns:rdf="http://www.w3.org/1999/02/22-rdf-syntax-ns#"
   xmlns:svg="http://www.w3.org/2000/svg"
   xmlns="http://www.w3.org/2000/svg"
   xmlns:sodipodi="http://sodipodi.sourceforge.net/DTD/sodipodi-0.dtd"
   xmlns:inkscape="http://www.inkscape.org/namespaces/inkscape"
   version="1.1"
   id="Ebene_1"
   x="0px"
   y="0px"
   viewBox="0 0 16 16"
   style="enable-background:new 0 0 16 16;"
   xml:space="preserve"
   sodipodi:docname="linereader-icon-new.svg"
   inkscape:version="0.92.4 (unknown)"
   inkscape:export-filename="/home/marrus/knime-workspace/git/knime-filehandling/org.knime.filehandling.core/src/org/knime/filehandling/core/nodes/linereader/linereader-icon-new.png"
   inkscape:export-xdpi="90"
   inkscape:export-ydpi="90"><metadata
   id="metadata29"><rdf:RDF><cc:Work
       rdf:about=""><dc:format>image/svg+xml</dc:format><dc:type
         rdf:resource="http://purl.org/dc/dcmitype/StillImage" /><dc:title></dc:title></cc:Work></rdf:RDF></metadata><defs
   id="defs27" /><sodipodi:namedview
   pagecolor="#ffffff"
   bordercolor="#666666"
   borderopacity="1"
   objecttolerance="10"
   gridtolerance="10"
   guidetolerance="10"
   inkscape:pageopacity="0"
   inkscape:pageshadow="2"
   inkscape:window-width="1544"
   inkscape:window-height="783"
   id="namedview25"
   showgrid="false"
   inkscape:zoom="14.75"
   inkscape:cx="0.88135593"
   inkscape:cy="14.937763"
   inkscape:window-x="1401"
   inkscape:window-y="309"
   inkscape:window-maximized="0"
   inkscape:current-layer="Ebene_1" />
<style
   type="text/css"
   id="style2">
	.st0{fill:none;stroke:#FFFFFF;stroke-width:0;stroke-linecap:round;stroke-linejoin:round;}
	.st1{fill:#1A171B;}
</style>
<g
   id="XMLID_11_">
	<polygon
   id="XMLID_12_"
   points="16,13.7 12.1,11.5 12.1,13.2 6.4,13.2 6.4,14.2 12.1,14.2 12.1,16  " />
</g>
<line
   class="st0"
   x1="11.6"
   y1="1.1"
   x2="11.6"
   y2="1.1"
   id="line6" />
<line
   class="st0"
   x1="0.5"
   y1="1.1"
   x2="0.5"
   y2="1.1"
   id="line8" />
<path
   class="st1"
   d="M8.8,2.5c0-0.3,0-0.7,0-1H0c0,0.3,0,0.7,0,1H8.8z"
   id="path10" />
<line
   class="st0"
   x1="11.6"
   y1="3.4"
   x2="11.6"
   y2="3.4"
   id="line12" />
<line
   class="st0"
   x1="0.5"
   y1="3.4"
   x2="0.5"
   y2="3.4"
   id="line14" />
<path
   class="st1"
   d="M0,3.9c0,0.3,0,0.7,0,1h8.8c0-0.3,0-0.7,0-1H0z"
   id="path16" />
<line
   class="st0"
   x1="11.6"
   y1="5.9"
   x2="11.6"
   y2="5.9"
   id="line18" />
<line
   class="st0"
   x1="0.5"
   y1="5.9"
   x2="0.5"
   y2="5.9"
   id="line20" />
<path
   class="st1"
   d="M0,6.4c0,0.3,0,0.7,0,1h8.8c0-0.3,0-0.7,0-1H0z"
   id="path22" />
<text
   xml:space="preserve"
   style="font-style:normal;font-weight:normal;font-size:7.30354166px;line-height:1.25;font-family:sans-serif;letter-spacing:0px;word-spacing:0px;fill:#000000;fill-opacity:1;stroke:none;stroke-width:0.42135817"
   x="5.6191602"
   y="2.4359224"
   id="text838"
   transform="matrix(0.89678877,0.58668684,-0.51085922,0.78088134,0,0)"><tspan
     sodipodi:role="line"
     id="tspan836"
     x="5.6191602"
     y="2.4359224"
     style="font-style:normal;font-variant:normal;font-weight:normal;font-stretch:normal;font-family:'K.O. Activista*';-inkscape-font-specification:'K.O. Activista*';fill:#df0000;fill-opacity:1;stroke-width:0.42135817">New</tspan></text>
</svg>