<svg width="16" height="16" viewBox="0 0 16 16" fill="none" xmlns="http://www.w3.org/2000/svg">
<path d="M13 3.17383H1.7394V11.9321H6.32705H13V8.13684V3.17383Z" fill="white" stroke="#3E3A39" stroke-miterlimit="10" stroke-linejoin="round"/>
<path d="M5.70303 3.63129V1.87964" stroke="#3E3A39" stroke-miterlimit="10" stroke-linejoin="round"/>
<path d="M9.08121 1.87964V3.63129" stroke="#3E3A39" stroke-miterlimit="10" stroke-linejoin="round"/>
<path d="M5.06545 7.74764V7.35852H3.56404V7.74764H5.06545Z" fill="#3E3A39"/>
<path d="M5.06516 9.69332V9.3042H3.56374V9.69332H5.06516Z" fill="#3E3A39"/>
<path d="M8.44333 5.80135V5.41223H6.94191V5.80135H8.44333Z" fill="#3E3A39"/>
<path d="M8.44333 7.74764V7.35852H6.94191V7.74764H8.44333Z" fill="#3E3A39"/>
<path d="M8.44333 9.69393V9.30481H6.94191V9.69393H8.44333Z" fill="#3E3A39"/>
<path d="M5.06516 5.80135V5.41223H3.56374V5.80135H5.06516Z" fill="#3E3A39"/>
<path d="M11.5894 13.146C13.7415 13.146 15.4862 11.4013 15.4862 9.24921C15.4862 7.09707 13.7415 5.35242 11.5894 5.35242C9.43727 5.35242 7.69262 7.09707 7.69262 9.24921C7.69262 11.4013 9.43727 13.146 11.5894 13.146Z" fill="white" stroke="#3E3A39" stroke-miterlimit="10" stroke-linejoin="round"/>
<path d="M13.4353 10.2747L11.3843 9.23692V6.99316" stroke="#3E3A39" stroke-width="0.5" stroke-miterlimit="10" stroke-linejoin="round"/>
<rect width="13" height="5" transform="translate(0 11)" fill="#201E1E"/>
<path d="M2.25375 12.1562L2.75375 13.5039L3.25375 12.1562H3.77719L2.99203 13.9531V15H2.51352V13.9531L1.72836 12.1562H2.25375ZM5.0468 12.1562L4.12492 15.2441H3.77336L4.69719 12.1562H5.0468ZM5.49219 12.1562H5.92383L6.57812 14.2715L7.23047 12.1562H7.63086L6.75586 15H6.39844L5.49219 12.1562ZM5.33008 12.1562H5.72852L5.79297 13.9668V15H5.33008V12.1562ZM7.42383 12.1562H7.82422V15H7.36133V13.9668L7.42383 12.1562ZM9.31258 12.1562L8.3907 15.2441H8.03914L8.96297 12.1562H9.31258ZM10.6212 14.5586V12H11.0763V15L10.6642 15.002L10.6212 14.5586ZM9.48648 14.0293V13.8633C9.48648 13.6901 9.50211 13.5404 9.53336 13.4141C9.56461 13.2865 9.61018 13.1803 9.67008 13.0957C9.73128 13.0111 9.80484 12.9486 9.89078 12.9082C9.97672 12.8678 10.0737 12.8477 10.1818 12.8477C10.2873 12.8477 10.3784 12.8717 10.4552 12.9199C10.5321 12.9668 10.5972 13.0339 10.6505 13.1211C10.7039 13.2083 10.7462 13.3125 10.7775 13.4336C10.8101 13.5534 10.8322 13.6875 10.8439 13.8359V14.0664C10.8296 14.2096 10.8068 14.3411 10.7755 14.4609C10.7443 14.5794 10.702 14.6816 10.6486 14.7676C10.5952 14.8535 10.5295 14.9206 10.4513 14.9688C10.3745 15.0156 10.284 15.0391 10.1798 15.0391C10.0718 15.0391 9.97477 15.0176 9.88883 14.9746C9.80419 14.9316 9.73128 14.8678 9.67008 14.7832C9.61018 14.6986 9.56461 14.5938 9.53336 14.4688C9.50211 14.3424 9.48648 14.196 9.48648 14.0293ZM9.94156 13.8633V14.0293C9.94156 14.1374 9.94807 14.2305 9.96109 14.3086C9.97411 14.3867 9.99495 14.4512 10.0236 14.502C10.0522 14.5514 10.09 14.5885 10.1369 14.6133C10.1837 14.6367 10.2404 14.6484 10.3068 14.6484C10.3901 14.6484 10.4578 14.6276 10.5099 14.5859C10.5633 14.5443 10.6043 14.4883 10.633 14.418C10.6629 14.3464 10.6837 14.2669 10.6955 14.1797V13.7246C10.689 13.6556 10.6759 13.5918 10.6564 13.5332C10.6369 13.4733 10.6115 13.4212 10.5802 13.377C10.549 13.3327 10.5106 13.2982 10.465 13.2734C10.4207 13.2474 10.3686 13.2344 10.3087 13.2344C10.2423 13.2344 10.1857 13.2474 10.1388 13.2734C10.092 13.2982 10.0542 13.3366 10.0255 13.3887C9.9969 13.4395 9.97542 13.5046 9.96109 13.584C9.94807 13.6621 9.94156 13.7552 9.94156 13.8633Z" fill="white"/>
</svg>
