<svg width="16" height="16" viewBox="0 0 16 16" fill="none" xmlns="http://www.w3.org/2000/svg">
<g clip-path="url(#clip0_1772_2336)">
<path d="M2.5 2.28125V9.42495H13.5312V4.78954H8.09734L6.21794 2.28125H2.5Z" fill="white"/>
<path d="M13.9843 9.42495V4.50969H8.08864L6.04953 1.84998H2.01562V9.42495" stroke="#3E3A39" stroke-miterlimit="10" stroke-linejoin="round"/>
<path d="M13.9844 4.50972V2.73657H6.71448" stroke="#3E3A39" stroke-miterlimit="10" stroke-linejoin="round"/>
<path d="M3.58594 13.6484V8.53125H4.49609V14.5312L3.67188 14.5352L3.58594 13.6484ZM1.31641 12.5898V12.2578C1.31641 11.9115 1.34766 11.612 1.41016 11.3594C1.47266 11.1042 1.5638 10.8919 1.68359 10.7227C1.80599 10.5534 1.95312 10.4284 2.125 10.3477C2.29688 10.2669 2.49089 10.2266 2.70703 10.2266C2.91797 10.2266 3.10026 10.2747 3.25391 10.3711C3.40755 10.4648 3.53776 10.599 3.64453 10.7734C3.7513 10.9479 3.83594 11.1562 3.89844 11.3984C3.96354 11.638 4.00781 11.9062 4.03125 12.2031V12.6641C4.0026 12.9505 3.95703 13.2135 3.89453 13.4531C3.83203 13.6901 3.7474 13.8945 3.64062 14.0664C3.53385 14.2383 3.40234 14.3724 3.24609 14.4688C3.09245 14.5625 2.91146 14.6094 2.70312 14.6094C2.48698 14.6094 2.29297 14.5664 2.12109 14.4805C1.95182 14.3945 1.80599 14.2669 1.68359 14.0977C1.5638 13.9284 1.47266 13.7188 1.41016 13.4688C1.34766 13.2161 1.31641 12.9232 1.31641 12.5898ZM2.22656 12.2578V12.5898C2.22656 12.806 2.23958 12.9922 2.26562 13.1484C2.29167 13.3047 2.33333 13.4336 2.39062 13.5352C2.44792 13.6341 2.52344 13.7083 2.61719 13.7578C2.71094 13.8047 2.82422 13.8281 2.95703 13.8281C3.1237 13.8281 3.25911 13.7865 3.36328 13.7031C3.47005 13.6198 3.55208 13.5078 3.60938 13.3672C3.66927 13.224 3.71094 13.0651 3.73438 12.8906V11.9805C3.72135 11.8424 3.69531 11.7148 3.65625 11.5977C3.61719 11.4779 3.56641 11.3737 3.50391 11.2852C3.44141 11.1966 3.36458 11.1276 3.27344 11.0781C3.1849 11.026 3.08073 11 2.96094 11C2.82812 11 2.71484 11.026 2.62109 11.0781C2.52734 11.1276 2.45182 11.2044 2.39453 11.3086C2.33724 11.4102 2.29427 11.5404 2.26562 11.6992C2.23958 11.8555 2.22656 12.0417 2.22656 12.2578ZM7.39062 13.6719V11.5664C7.39062 11.4206 7.36979 11.3034 7.32812 11.2148C7.28906 11.1263 7.23047 11.0625 7.15234 11.0234C7.07682 10.9818 6.98177 10.9609 6.86719 10.9609C6.7474 10.9609 6.64583 10.9857 6.5625 11.0352C6.48177 11.0846 6.42057 11.1523 6.37891 11.2383C6.33724 11.3216 6.31641 11.418 6.31641 11.5273H5.40625C5.40625 11.3581 5.4401 11.1953 5.50781 11.0391C5.57812 10.8828 5.67839 10.7435 5.80859 10.6211C5.9388 10.4987 6.09635 10.4023 6.28125 10.332C6.46615 10.2617 6.67188 10.2266 6.89844 10.2266C7.16927 10.2266 7.41016 10.2721 7.62109 10.3633C7.83203 10.4518 7.9974 10.5964 8.11719 10.7969C8.23958 10.9948 8.30078 11.2552 8.30078 11.5781V13.5508C8.30078 13.7461 8.3125 13.9206 8.33594 14.0742C8.36198 14.2253 8.39714 14.3568 8.44141 14.4688V14.5312H7.51562C7.47396 14.4297 7.44271 14.2995 7.42188 14.1406C7.40104 13.9818 7.39062 13.8255 7.39062 13.6719ZM7.51172 11.957L7.51562 12.5469H7.07812C6.94792 12.5469 6.83073 12.5651 6.72656 12.6016C6.6224 12.6354 6.53385 12.6849 6.46094 12.75C6.39062 12.8125 6.33594 12.8893 6.29688 12.9805C6.26042 13.0716 6.24219 13.1719 6.24219 13.2812C6.24219 13.4141 6.26042 13.5221 6.29688 13.6055C6.33594 13.6888 6.39193 13.7513 6.46484 13.793C6.54036 13.832 6.63151 13.8516 6.73828 13.8516C6.88411 13.8516 7.01042 13.8203 7.11719 13.7578C7.22656 13.6927 7.3099 13.6146 7.36719 13.5234C7.42708 13.4323 7.45052 13.349 7.4375 13.2734L7.64453 13.6523C7.6237 13.7513 7.58464 13.8555 7.52734 13.9648C7.47266 14.0742 7.40104 14.1784 7.3125 14.2773C7.22396 14.3763 7.11719 14.457 6.99219 14.5195C6.86719 14.5794 6.72266 14.6094 6.55859 14.6094C6.32161 14.6094 6.11068 14.5599 5.92578 14.4609C5.74089 14.362 5.59505 14.2201 5.48828 14.0352C5.38411 13.8477 5.33203 13.6237 5.33203 13.3633C5.33203 13.1523 5.36719 12.9609 5.4375 12.7891C5.50781 12.6172 5.61198 12.4701 5.75 12.3477C5.88802 12.2227 6.0612 12.1263 6.26953 12.0586C6.48047 11.9909 6.72656 11.957 7.00781 11.957H7.51172ZM10.9414 10.3047V11.0078H8.86719V10.3047H10.9414ZM9.43359 9.26953H10.3398V13.3516C10.3398 13.4818 10.3542 13.5807 10.3828 13.6484C10.4115 13.7161 10.4518 13.7617 10.5039 13.7852C10.556 13.8086 10.6172 13.8203 10.6875 13.8203C10.7396 13.8203 10.7904 13.8164 10.8398 13.8086C10.8919 13.7982 10.9297 13.7891 10.9531 13.7812V14.5156C10.8854 14.5417 10.8073 14.5638 10.7188 14.582C10.6302 14.6003 10.5234 14.6094 10.3984 14.6094C10.2135 14.6094 10.0482 14.5716 9.90234 14.4961C9.75651 14.418 9.64193 14.2917 9.55859 14.1172C9.47526 13.9401 9.43359 13.7057 9.43359 13.4141V9.26953ZM13.6094 13.6719V11.5664C13.6094 11.4206 13.5885 11.3034 13.5469 11.2148C13.5078 11.1263 13.4492 11.0625 13.3711 11.0234C13.2956 10.9818 13.2005 10.9609 13.0859 10.9609C12.9661 10.9609 12.8646 10.9857 12.7812 11.0352C12.7005 11.0846 12.6393 11.1523 12.5977 11.2383C12.556 11.3216 12.5352 11.418 12.5352 11.5273H11.625C11.625 11.3581 11.6589 11.1953 11.7266 11.0391C11.7969 10.8828 11.8971 10.7435 12.0273 10.6211C12.1576 10.4987 12.3151 10.4023 12.5 10.332C12.6849 10.2617 12.8906 10.2266 13.1172 10.2266C13.388 10.2266 13.6289 10.2721 13.8398 10.3633C14.0508 10.4518 14.2161 10.5964 14.3359 10.7969C14.4583 10.9948 14.5195 11.2552 14.5195 11.5781V13.5508C14.5195 13.7461 14.5312 13.9206 14.5547 14.0742C14.5807 14.2253 14.6159 14.3568 14.6602 14.4688V14.5312H13.7344C13.6927 14.4297 13.6615 14.2995 13.6406 14.1406C13.6198 13.9818 13.6094 13.8255 13.6094 13.6719ZM13.7305 11.957L13.7344 12.5469H13.2969C13.1667 12.5469 13.0495 12.5651 12.9453 12.6016C12.8411 12.6354 12.7526 12.6849 12.6797 12.75C12.6094 12.8125 12.5547 12.8893 12.5156 12.9805C12.4792 13.0716 12.4609 13.1719 12.4609 13.2812C12.4609 13.4141 12.4792 13.5221 12.5156 13.6055C12.5547 13.6888 12.6107 13.7513 12.6836 13.793C12.7591 13.832 12.8503 13.8516 12.957 13.8516C13.1029 13.8516 13.2292 13.8203 13.3359 13.7578C13.4453 13.6927 13.5286 13.6146 13.5859 13.5234C13.6458 13.4323 13.6693 13.349 13.6562 13.2734L13.8633 13.6523C13.8424 13.7513 13.8034 13.8555 13.7461 13.9648C13.6914 14.0742 13.6198 14.1784 13.5312 14.2773C13.4427 14.3763 13.3359 14.457 13.2109 14.5195C13.0859 14.5794 12.9414 14.6094 12.7773 14.6094C12.5404 14.6094 12.3294 14.5599 12.1445 14.4609C11.9596 14.362 11.8138 14.2201 11.707 14.0352C11.6029 13.8477 11.5508 13.6237 11.5508 13.3633C11.5508 13.1523 11.5859 12.9609 11.6562 12.7891C11.7266 12.6172 11.8307 12.4701 11.9688 12.3477C12.1068 12.2227 12.2799 12.1263 12.4883 12.0586C12.6992 11.9909 12.9453 11.957 13.2266 11.957H13.7305Z" fill="#201E1E"/>
</g>
<defs>
<clipPath id="clip0_1772_2336">
<rect width="16" height="16" fill="white"/>
</clipPath>
</defs>
</svg>
