<?xml version="1.0" encoding="utf-8"?>
<!-- Generator: Adobe Illustrator 19.0.0, SVG Export Plug-In . SVG Version: 6.00 Build 0)  -->
<!DOCTYPE svg PUBLIC "-//W3C//DTD SVG 1.1//EN" "http://www.w3.org/Graphics/SVG/1.1/DTD/svg11.dtd">
<svg version="1.1" id="Ebene_1" xmlns="http://www.w3.org/2000/svg" xmlns:xlink="http://www.w3.org/1999/xlink" x="0px" y="0px"
	 viewBox="0 0 16 16" style="enable-background:new 0 0 16 16;" xml:space="preserve">
<style type="text/css">
	.st0{fill:#FFFFFF;}
</style>
<g>
	<g id="XMLID_4_">
		<polygon id="XMLID_8_" class="st0" points="8.5,1 2.2,1 2.2,15 11.1,15 11.1,3.7 8.5,3.7 		"/>
		<path id="XMLID_5_" d="M9,0H1.2v16h10.9V3.2L9,0z M11.1,15H2.2V1h6.3v2.7h2.6V15z"/>
	</g>
	<g id="XMLID_132_">
		<path id="XMLID_133_" d="M12.7,9.8L14.6,8c0.3-0.3,0.3-0.8,0-1.1c-0.3-0.3-0.8-0.3-1.1,0l-1.8,1.8L9.9,7C9.6,6.7,9.1,6.7,8.8,7
			C8.5,7.2,8.5,7.7,8.8,8l1.8,1.8l-1.8,1.8c-0.3,0.3-0.3,0.8,0,1.1c0.1,0.1,0.3,0.2,0.5,0.2c0.2,0,0.4-0.1,0.5-0.2l1.8-1.8l1.8,1.8
			c0.1,0.1,0.3,0.2,0.5,0.2c0.2,0,0.4-0.1,0.5-0.2c0.3-0.3,0.3-0.8,0-1.1L12.7,9.8z"/>
	</g>
</g>
</svg>
