<?xml version="1.0" encoding="UTF-8" standalone="no"?>
<!-- Generator: Adobe Illustrator 19.2.1, SVG Export Plug-In . SVG Version: 6.00 Build 0)  -->

<svg
   xmlns:dc="http://purl.org/dc/elements/1.1/"
   xmlns:cc="http://creativecommons.org/ns#"
   xmlns:rdf="http://www.w3.org/1999/02/22-rdf-syntax-ns#"
   xmlns:svg="http://www.w3.org/2000/svg"
   xmlns="http://www.w3.org/2000/svg"
   xmlns:sodipodi="http://sodipodi.sourceforge.net/DTD/sodipodi-0.dtd"
   xmlns:inkscape="http://www.inkscape.org/namespaces/inkscape"
   version="1.0"
   id="Ebene_1"
   x="0px"
   y="0px"
   viewBox="0 0 16 16"
   style="enable-background:new 0 0 16 16;"
   xml:space="preserve"
   sodipodi:docname="variable_credential-icon.svg"
   inkscape:version="0.92.2 (5c3e80d, 2017-08-06)"
   inkscape:export-filename="C:\DEV\GIT\master\knime-base\org.knime.base\src\org\knime\base\node\flowvariable\variabletocredential\variable_credential.png"
   inkscape:export-xdpi="96"
   inkscape:export-ydpi="96"><metadata
     id="metadata23"><rdf:RDF><cc:Work
         rdf:about=""><dc:format>image/svg+xml</dc:format><dc:type
           rdf:resource="http://purl.org/dc/dcmitype/StillImage" /></cc:Work></rdf:RDF></metadata><defs
     id="defs21" /><sodipodi:namedview
     pagecolor="#ffffff"
     bordercolor="#666666"
     borderopacity="1"
     objecttolerance="10"
     gridtolerance="10"
     guidetolerance="10"
     inkscape:pageopacity="0"
     inkscape:pageshadow="2"
     inkscape:window-width="1887"
     inkscape:window-height="1167"
     id="namedview19"
     showgrid="true"
     inkscape:zoom="62.375"
     inkscape:cx="8.5771543"
     inkscape:cy="8"
     inkscape:window-x="1944"
     inkscape:window-y="1"
     inkscape:window-maximized="0"
     inkscape:current-layer="Ebene_1"><inkscape:grid
       type="xygrid"
       id="grid850" /></sodipodi:namedview><style
     type="text/css"
     id="style2">
	.st0{fill:#FFFFFF;}
	.st1{fill:#1F1D21;}
	.st2{enable-background:new    ;}
	.st3{fill:#C75052;}
	.st4{fill:#AD1121;}
</style><g
     id="XMLID_389_"><path
       id="XMLID_390_"
       class="st1"
       d="M9,11.8c0.1-0.4,0.2-0.8,0.3-1.1c0.1-0.3,0-0.5-0.1-0.7c-1-1.6-2-3.3-3-4.9   C6,4.8,6,4.7,6.1,4.4C6.5,3.6,6.5,2.8,6.2,2C5.3-0.1,3-0.5,1.5,0.5C0.4,1.2-0.2,2.5,0,3.7C0.3,5,1.2,6.1,2.5,6.3   c0.7,0.1,1,0.4,1.3,1c0,0,0,0,0,0.1C4,7.4,4.1,7.5,4.2,7.5C4.6,7.6,5,7.7,5.4,7.7C5.3,8.2,5.3,8.6,5.2,8.9C5.6,9,5.9,9.1,6.3,9.2   c-0.1,0.4-0.2,0.7-0.4,1.2c0.4,0,0.8,0.1,1.2,0.1c-0.1,0.4-0.2,0.7-0.3,1c0.7,0.2,1.3,0.3,1.9,0.5C8.8,12,9,11.9,9,11.8z M1.8,3.5   C1.4,2.9,1.7,2.1,2.3,1.7C2.9,1.4,3.7,1.6,4,2.2C4.4,2.8,4.2,3.6,3.6,4C3,4.3,2.1,4.1,1.8,3.5z" /></g><g
     id="g7"
     transform="matrix(1.26,0,0,1.2280702,-2.1590564,-8.9463382)"
     inkscape:export-xdpi="96"
     inkscape:export-ydpi="96"><g
       id="XMLID_99_"><path
         inkscape:connector-curvature="0"
         id="XMLID_100_"
         d="m 10.6,14.6 -2,-5.7 h 1.2 l 1.4,4.2 1.4,-4.2 h 1.3 l -2,5.7 z" /></g></g></svg>