<?xml version="1.0" encoding="utf-8"?>
<!-- Generator: Adobe Illustrator 19.0.0, SVG Export Plug-In . SVG Version: 6.00 Build 0)  -->
<!DOCTYPE svg PUBLIC "-//W3C//DTD SVG 1.1//EN" "http://www.w3.org/Graphics/SVG/1.1/DTD/svg11.dtd">
<svg version="1.1" id="Ebene_1" xmlns="http://www.w3.org/2000/svg" xmlns:xlink="http://www.w3.org/1999/xlink" x="0px" y="0px"
	 viewBox="0 0 16 16" style="enable-background:new 0 0 16 16;" xml:space="preserve">
<style type="text/css">
	.st0{fill:#FFFFFF;}
</style>
<g>
	<polygon class="st0" points="5.1,15 5.1,3.7 2.5,3.7 2.5,1 0,1 0,15 	"/>
	<polygon points="6.1,3.2 3,0 0,0 0,1 2.5,1 2.5,3.7 5.1,3.7 5.1,15 0,15 0,16 6.1,16 	"/>
</g>
<g>
	<rect x="12.5" y="1" class="st0" width="3.5" height="14"/>
	<polygon points="12.5,15 12.5,1 16,1 16,0 11.5,0 11.5,16 16,16 16,15 	"/>
</g>
<g id="XMLID_11_">
	<polygon id="XMLID_12_" points="11.3,8 7.4,5.7 7.4,7.5 1.7,7.5 1.7,8.5 7.4,8.5 7.4,10.3 	"/>
</g>
</svg>
