<?xml version="1.0" encoding="UTF-8" standalone="no"?>
<svg
   xmlns:dc="http://purl.org/dc/elements/1.1/"
   xmlns:cc="http://creativecommons.org/ns#"
   xmlns:rdf="http://www.w3.org/1999/02/22-rdf-syntax-ns#"
   xmlns:svg="http://www.w3.org/2000/svg"
   xmlns="http://www.w3.org/2000/svg"
   viewBox="0 0 21.333332 21.333332"
   height="21.333332"
   width="21.333332"
   xml:space="preserve"
   id="svg831"
   version="1.1"><metadata
     id="metadata837"><rdf:RDF><cc:Work
         rdf:about=""><dc:format>image/svg+xml</dc:format><dc:type
           rdf:resource="http://purl.org/dc/dcmitype/StillImage" /><dc:title></dc:title></cc:Work></rdf:RDF></metadata><defs
     id="defs835"><clipPath
       clipPathUnits="userSpaceOnUse"
       id="clipPath939"><path
         d="M 0,16 H 16 V 0 H 0 Z"
         id="path937" /></clipPath></defs><g
     transform="matrix(1.3333333,0,0,-1.3333333,0,21.333333)"
     id="g839"><path
       id="path841"
       style="fill:#4ba1bf;fill-opacity:1;fill-rule:nonzero;stroke:none"
       d="M 0,0 H 16 V 16 H 0 Z" /><path
       id="path847"
       style="fill:#00ff00;fill-opacity:1;fill-rule:nonzero;stroke:none"
       d="M 0,4 H 3 V 8.001 H 0 Z" /><path
       id="path849"
       style="fill:#ff0000;fill-opacity:1;fill-rule:nonzero;stroke:none"
       d="M 12,7 H 9 v 5 h 3 z" /><path
       id="path851"
       style="fill:#000000;fill-opacity:1;fill-rule:nonzero;stroke:none"
       d="m 4.4665769,4 h 3 v 12.001 h -3 z" /><path
       d="m 13.531381,11.497961 c 0.884667,-0.667132 1.695608,-1.33426 2.506554,-2.0013891 C 14.85838,7.0186635 13.678827,4.44545 12.499271,1.9675402 c -0.810946,0.667131 -1.62189,1.3342599 -2.506557,2.0013902 1.179556,2.3826039 2.359111,4.9558176 3.538667,7.5290306"
       style="fill:#000000;fill-opacity:1;fill-rule:nonzero;stroke:none;stroke-width:8.40215111;stroke-miterlimit:4;stroke-dasharray:none"
       id="path943-7" /><path
       d="M 12.204381,1.3004128 C 11.467158,0.91919608 10.729936,0.44267354 9.8452702,-0.03384729 9.7715385,1.1098036 9.6978262,2.2534544 9.6978262,3.206498 10.50877,2.6346712 11.319714,1.9675402 12.204381,1.3004128"
       style="fill:#000000;fill-opacity:1;fill-rule:nonzero;stroke:none;stroke-width:0.83821452"
       id="path947-8" /></g></svg>