<svg width="16" height="16" viewBox="0 0 16 16" fill="none" xmlns="http://www.w3.org/2000/svg">
<g clip-path="url(#clip0_16456_3934)">
<path d="M13.8333 0.5H10.5C10.058 0.5 9.63405 0.675595 9.32149 0.988155C9.00893 1.30072 8.83333 1.72464 8.83333 2.16667V7.16667V12.1667C8.83333 13.0507 9.18452 13.8986 9.80964 14.5237C10.4348 15.1488 11.2826 15.5 12.1667 15.5C13.0507 15.5 13.8986 15.1488 14.5237 14.5237C15.1488 13.8986 15.5 13.0507 15.5 12.1667V2.16667C15.5 1.72464 15.3244 1.30072 15.0118 0.988155C14.6993 0.675595 14.2754 0.5 13.8333 0.5Z" fill="white"/>
<path d="M8.83333 4.12498L7.16667 2.45831C6.85412 2.14586 6.43027 1.97034 5.98833 1.97034C5.54639 1.97034 5.12255 2.14586 4.81 2.45831L2.45333 4.81498C2.14088 5.12753 1.96536 5.55137 1.96536 5.99331C1.96536 6.43525 2.14088 6.8591 2.45333 7.17165L9.95333 14.6716" fill="white"/>
<path d="M4.08333 8.83333H2.16667C1.72464 8.83333 1.30072 9.00893 0.988155 9.32149C0.675595 9.63405 0.5 10.058 0.5 10.5V13.8333C0.5 14.2754 0.675595 14.6993 0.988155 15.0118C1.30072 15.3244 1.72464 15.5 2.16667 15.5H12.1667" fill="white"/>
<path d="M12.1667 15.5C11.2826 15.5 10.4348 15.1488 9.80964 14.5237C9.18452 13.8986 8.83333 13.0507 8.83333 12.1667V7.16667V2.16667C8.83333 1.72464 9.00893 1.30072 9.32149 0.988155C9.63405 0.675595 10.058 0.5 10.5 0.5H13.8333C14.2754 0.5 14.6993 0.675595 15.0118 0.988155C15.3244 1.30072 15.5 1.72464 15.5 2.16667V12.1667C15.5 13.0507 15.1488 13.8986 14.5237 14.5237C13.8986 15.1488 13.0507 15.5 12.1667 15.5ZM12.1667 15.5H2.16667C1.72464 15.5 1.30072 15.3244 0.988155 15.0118C0.675595 14.6993 0.5 14.2754 0.5 13.8333V10.5C0.5 10.058 0.675595 9.63405 0.988155 9.32149C1.30072 9.00893 1.72464 8.83333 2.16667 8.83333H4.08333M8.83333 4.12498L7.16667 2.45831C6.85412 2.14586 6.43027 1.97034 5.98833 1.97034C5.54639 1.97034 5.12255 2.14586 4.81 2.45831L2.45333 4.81498C2.14088 5.12753 1.96536 5.55137 1.96536 5.99331C1.96536 6.43525 2.14088 6.8591 2.45333 7.17165L9.95333 14.6716" stroke="#3E3A39" stroke-linecap="round" stroke-linejoin="round"/>
<rect x="10.0312" y="1.75" width="4.375" height="7.5" rx="0.5" fill="#6E6E6E"/>
<path d="M5.48966 3.31523C5.72947 3.06723 6.12525 3.0609 6.37345 3.30058L8.20817 5.07182V10.958C8.07103 10.9457 7.93651 10.8915 7.82975 10.7884L3.3339 6.44755C3.08574 6.2079 3.07865 5.81209 3.31803 5.56376L5.48966 3.31523Z" fill="#C0C4C6"/>
<path d="M8.69458 14.2964C8.63532 14.315 8.57322 14.3281 8.50781 14.3281H2.25781C1.91263 14.3281 1.63281 14.0483 1.63281 13.7031V10.5781C1.63281 10.2329 1.91263 9.95312 2.25781 9.95312H4.35132L8.69458 14.2964Z" fill="#DBDCDE"/>
<circle cx="12.2188" cy="12.1406" r="0.75" fill="#3E3A39"/>
</g>
<defs>
<clipPath id="clip0_16456_3934">
<rect width="16" height="16" fill="white"/>
</clipPath>
</defs>
</svg>
