<svg width="16" height="16" viewBox="0 0 16 16" fill="none" xmlns="http://www.w3.org/2000/svg">
<path d="M2.5 2.64709C2.5 2.24146 2.66113 1.85245 2.94795 1.56563C3.23477 1.27881 3.62379 1.11768 4.02941 1.11768H11.6765C12.0821 1.11768 12.4711 1.27881 12.7579 1.56563C13.0447 1.85245 13.2059 2.24146 13.2059 2.64709V3.41179V4.1765C13.2059 4.58212 13.0447 4.97114 12.7579 5.25796C12.4711 5.54478 12.0821 5.70591 11.6765 5.70591H4.02941C3.62379 5.70591 3.23477 5.54478 2.94795 5.25796C2.66113 4.97114 2.5 4.58212 2.5 4.1765V2.64709Z" fill="#DBDCDE"/>
<path d="M6.32353 11.0588C6.32353 10.856 6.4041 10.6615 6.54751 10.5181C6.69092 10.3747 6.88542 10.2941 7.08824 10.2941H8.61765C8.82046 10.2941 9.01497 10.3747 9.15838 10.5181C9.30179 10.6615 9.38235 10.856 9.38235 11.0588V14.1177C9.38235 14.3205 9.30179 14.515 9.15838 14.6584C9.01497 14.8018 8.82046 14.8824 8.61765 14.8824H7.08824C6.88542 14.8824 6.69092 14.8018 6.54751 14.6584C6.4041 14.515 6.32353 14.3205 6.32353 14.1177V11.0588Z" fill="white"/>
<path d="M13.2059 3.41179H13.9706C14.3762 3.41179 14.7652 3.57293 15.052 3.85975C15.3389 4.14657 15.5 4.53558 15.5 4.94121C15.5 5.95527 15.0972 6.9278 14.3801 7.64485C13.6631 8.3619 12.6905 8.76473 11.6765 8.76473H7.85294V10.2941M2.5 2.64709C2.5 2.24146 2.66113 1.85245 2.94795 1.56563C3.23477 1.27881 3.62379 1.11768 4.02941 1.11768H11.6765C12.0821 1.11768 12.4711 1.27881 12.7579 1.56563C13.0447 1.85245 13.2059 2.24146 13.2059 2.64709V4.1765C13.2059 4.58212 13.0447 4.97114 12.7579 5.25796C12.4711 5.54478 12.0821 5.70591 11.6765 5.70591H4.02941C3.62379 5.70591 3.23477 5.54478 2.94795 5.25796C2.66113 4.97114 2.5 4.58212 2.5 4.1765V2.64709ZM6.32353 11.0589C6.32353 10.856 6.4041 10.6615 6.54751 10.5181C6.69092 10.3747 6.88542 10.2941 7.08824 10.2941H8.61765C8.82046 10.2941 9.01497 10.3747 9.15838 10.5181C9.30179 10.6615 9.38235 10.856 9.38235 11.0589V14.1177C9.38235 14.3205 9.30179 14.515 9.15838 14.6584C9.01497 14.8018 8.82046 14.8824 8.61765 14.8824H7.08824C6.88542 14.8824 6.69092 14.8018 6.54751 14.6584C6.4041 14.515 6.32353 14.3205 6.32353 14.1177V11.0589Z" stroke="black" stroke-linecap="round" stroke-linejoin="round"/>
<path d="M2.08285 10.7369C2.54748 11.0877 3.2248 11.0877 3.68926 10.7369C4.1539 10.386 4.27175 9.78551 3.9689 9.3125L3.09569 8.10247C3.02069 7.9983 2.86587 7.96864 2.74998 8.03631C2.72089 8.05334 2.69595 8.07588 2.67677 8.10247L1.80303 9.3125C1.50035 9.78551 1.61821 10.386 2.08285 10.7369Z" fill="#DBDCDE" stroke="black" stroke-linecap="round" stroke-linejoin="round"/>
</svg>
