<svg xmlns="http://www.w3.org/2000/svg" viewBox="0 0 16 16"><title>probability_distribution_splitter</title><g id="Layer_2" data-name="Layer 2"><g id="probability_distribution_splitter"><polygon points="9.5 14 12 14 12 14.5 12 15.5 12 16 12.5 16 13.5 16 15.5 16 16 16 16 15.5 16 14.5 16 14 15.5 14 14 14 14 13.5 14 12.5 14 12 15.5 12 16 12 16 11.5 16 10.5 16 10 15.5 10 13.5 10 12.5 10 12 10 12 10.5 12 11.5 12 12 9.5 12 9 12 9 12.5 9 13.5 9 14 9.5 14"/><rect y="8" width="3" height="4"/><rect x="4.5" width="3" height="12"/><polygon points="9 4 9 9 9 11 11 11 11 9 12 9 12 4 9 4"/></g></g></svg>