<svg width="16" height="16" viewBox="0 0 16 16" fill="none" xmlns="http://www.w3.org/2000/svg">
<g clip-path="url(#clip0_1933_2415)">
<path d="M5.97501 4.32498V2.22498" stroke="#3E3A39" stroke-miterlimit="10" stroke-linejoin="round"/>
<path d="M10.025 2.22498V4.32498" stroke="#3E3A39" stroke-miterlimit="10" stroke-linejoin="round"/>
<path d="M14.75 3.27502H1.25V13.775H14.75V3.27502Z" fill="white" stroke="#3E3A39" stroke-miterlimit="10" stroke-linejoin="round"/>
<rect x="3.11391" y="8.40784" width="9.84509" height="3.11658" fill="#DBDCDE"/>
<rect x="7.12704" y="5.75781" width="5.18954" height="3.81213" fill="#DBDCDE"/>
<path d="M8.92705 11.5244V11.0579H7.12705V11.5244H8.92705Z" fill="#3E3A39"/>
<path d="M12.959 11.5244V11.0579H11.159V11.5244H12.959Z" fill="#3E3A39"/>
<path d="M4.87704 11.5244V11.0579H3.07705V11.5244H4.87704Z" fill="#3E3A39"/>
<path d="M8.92725 8.87434V8.40784H7.12725V8.87434H8.92725Z" fill="#3E3A39"/>
<path d="M8.92725 6.22431V5.75781H7.12725V6.22431H8.92725Z" fill="#3E3A39"/>
<path d="M4.87724 6.22431V5.75781H3.07724V6.22431H4.87724Z" fill="#3E3A39"/>
<path d="M4.91391 8.87434V8.40784H3.11391V8.87434H4.91391Z" fill="#3E3A39"/>
<line x1="9.44482" y1="6.25146" x2="12.5586" y2="6.25147" stroke="#3CB44B"/>
<path d="M12.059 5.75781L12.059 8.40784" stroke="#3CB44B"/>
<path d="M11.5372 8.69155L12.059 9.59326L12.5808 8.69155H11.5372Z" fill="#201E1E" stroke="#3CB44B"/>
</g>
<defs>
<clipPath id="clip0_1933_2415">
<rect width="16" height="16" fill="white"/>
</clipPath>
</defs>
</svg>
