<svg width="16" height="16" viewBox="0 0 16 16" fill="none" xmlns="http://www.w3.org/2000/svg">
<g clip-path="url(#clip0_1933_2416)">
<path d="M8.028 15.3125C12.0666 15.3125 15.3405 12.0386 15.3405 8C15.3405 3.96142 12.0666 0.6875 8.028 0.6875C3.98942 0.6875 0.7155 3.96142 0.7155 8C0.7155 12.0386 3.98942 15.3125 8.028 15.3125Z" fill="white" stroke="#3E3A39" stroke-miterlimit="10" stroke-linejoin="round"/>
<path fill-rule="evenodd" clip-rule="evenodd" d="M8.62638 2.48871C8.48203 2.47735 8.33612 2.47156 8.18886 2.47156C5.15173 2.47156 2.68965 4.93364 2.68965 7.97076C2.68965 11.0079 5.15173 13.47 8.18886 13.47C10.3114 13.47 12.1531 12.2675 13.0698 10.5065L8.62638 7.81263V2.48871Z" fill="#DBDCDE"/>
<path d="M12.3386 10.8215L12.7777 11.0605L13.2558 10.1822L12.8166 9.94316L12.3386 10.8215ZM8.43598 7.55876C8.19343 7.42675 7.88979 7.51635 7.75778 7.75889C7.62576 8.00143 7.71536 8.30507 7.9579 8.43708L8.43598 7.55876ZM12.8166 9.94316L8.43598 7.55876L7.9579 8.43708L12.3386 10.8215L12.8166 9.94316Z" fill="#3E3A39"/>
<path d="M7.69692 7.99795C7.69692 8.27409 7.92078 8.49795 8.19692 8.49795C8.47307 8.49795 8.69692 8.27409 8.69692 7.99795L7.69692 7.99795ZM8.69692 2.99328L8.69692 2.49328L7.69692 2.49328L7.69692 2.99328L8.69692 2.99328ZM8.69692 7.99795L8.69692 2.99328L7.69692 2.99328L7.69692 7.99795L8.69692 7.99795Z" fill="#3E3A39"/>
<path d="M11.1521 12C10.3163 12.6279 9.27739 13 8.15157 13C5.39014 13 3.15157 10.7614 3.15157 7.99996C3.15157 6.5137 3.80005 5.1789 4.8295 4.26306" stroke="#3CB44B" stroke-miterlimit="10" stroke-linejoin="round"/>
<path d="M6.39098 2.81669L3.50805 3.56442L5.60275 5.68881L6.39098 2.81669Z" fill="#3CB44B"/>
</g>
<defs>
<clipPath id="clip0_1933_2416">
<rect width="16" height="16" fill="white"/>
</clipPath>
</defs>
</svg>
