<?xml version="1.0" encoding="utf-8"?>
<!-- Generator: Adobe Illustrator 19.0.0, SVG Export Plug-In . SVG Version: 6.00 Build 0)  -->
<!DOCTYPE svg PUBLIC "-//W3C//DTD SVG 1.1//EN" "http://www.w3.org/Graphics/SVG/1.1/DTD/svg11.dtd">
<svg version="1.1" id="Ebene_1" xmlns="http://www.w3.org/2000/svg" xmlns:xlink="http://www.w3.org/1999/xlink" x="0px" y="0px"
	 viewBox="0 0 16 16" style="enable-background:new 0 0 16 16;" xml:space="preserve">
<style type="text/css">
	.st0{fill:#FFFFFF;}
</style>
<g id="XMLID_54_">
	<polygon id="XMLID_191_" class="st0" points="5.7,4 1.5,4 0.8,5.3 0.8,6.8 11.9,6.8 11.9,5.6 6.4,5.6 	"/>
	<path id="XMLID_56_" d="M6.9,4.8L6.2,3.3H1L0,5.1v1.8V16h12.7V6.8V4.8H6.9z M11.9,15.2H0.8V7.6h11.1V15.2z M11.9,6.8H0.8V5.3L1.5,4
		h4.2l0.8,1.5h5.5V6.8z"/>
	<rect id="XMLID_55_" x="0.8" y="7.6" class="st0" width="11.1" height="7.6"/>
</g>
<polygon points="8.8,9.9 8.8,8.3 7,8.3 7,6.8 4,6.8 4,8.4 5.8,8.4 5.8,9.9 3.9,9.9 3.9,11.5 5.8,11.5 5.8,12.9 3.9,12.9 3.9,14.4 
	5.8,14.4 5.8,16 8.8,16 8.8,14.4 6.9,14.4 6.9,13 8.8,13 8.8,11.4 6.9,11.4 6.9,9.9 "/>
<g id="XMLID_7_">
	<polygon id="XMLID_9_" points="14.4,0 12.7,2.8 14,2.8 14,5.9 14.7,5.9 14.7,2.8 16,2.8 	"/>
</g>
</svg>
