<?xml version="1.0" encoding="utf-8"?>
<!-- Generator: Adobe Illustrator 19.1.0, SVG Export Plug-In . SVG Version: 6.00 Build 0)  -->
<!DOCTYPE svg PUBLIC "-//W3C//DTD SVG 1.1//EN" "http://www.w3.org/Graphics/SVG/1.1/DTD/svg11.dtd">
<svg version="1.1" id="Ebene_1" xmlns="http://www.w3.org/2000/svg" xmlns:xlink="http://www.w3.org/1999/xlink" x="0px" y="0px"
	 viewBox="0 0 16 16" style="enable-background:new 0 0 16 16;" xml:space="preserve">
<style type="text/css">
	.st0{fill:#8B95AA;}
	.st1{fill:#EEF7FC;}
</style>
<g id="XMLID_54_">
	<path id="XMLID_56_" class="st0" d="M6.9,4.8L6.2,3.3H1L0,5.1v1.8V16h12.7V6.8v-2H6.9z M11.9,15.2H0.8V7.6h11.1
		C11.9,7.6,11.9,15.2,11.9,15.2z"/>
	<rect id="XMLID_55_" x="0.8" y="6.6" class="st1" width="11.1" height="8.6"/>
</g>
<polygon points="8.8,9.5 8.8,8 7,8 7,6.6 4,6.6 4,8.1 5.8,8.1 5.8,9.5 3.9,9.5 3.9,11 5.8,11 5.8,12.3 3.9,12.3 3.9,13.7 5.8,13.7 
	5.8,15.2 8.8,15.2 8.8,13.7 6.9,13.7 6.9,12.4 8.8,12.4 8.8,10.9 6.9,10.9 6.9,9.5 "/>
<g id="XMLID_7_">
	<polygon id="XMLID_9_" points="14.4,0 12.7,2.8 14,2.8 14,5.9 14.7,5.9 14.7,2.8 16,2.8 	"/>
</g>
</svg>
