<svg width="16" height="16" viewBox="0 0 16 16" fill="none" xmlns="http://www.w3.org/2000/svg">
<g clip-path="url(#clip0_1948_2956)">
<path d="M9.11129 12.959C12.5408 12.959 15.321 10.1788 15.321 6.74926C15.321 3.31973 12.5408 0.539551 9.11129 0.539551C5.68177 0.539551 2.90159 3.31973 2.90159 6.74926C2.90159 10.1788 5.68177 12.959 9.11129 12.959Z" fill="white" stroke="#3E3A39" stroke-miterlimit="10" stroke-linejoin="round"/>
<path fill-rule="evenodd" clip-rule="evenodd" d="M9.61943 2.06913C9.49686 2.05948 9.37295 2.05457 9.24789 2.05457C6.66879 2.05457 4.57802 4.14534 4.57802 6.72444C4.57802 9.30354 6.66879 11.3943 9.24789 11.3943C11.0504 11.3943 12.6143 10.3731 13.3928 8.8777L9.61943 6.59004V2.06913Z" fill="#C0C4C6"/>
<path d="M12.7357 9.2115L13.1749 9.45054L13.653 8.57221L13.2138 8.33318L12.7357 9.2115ZM9.49379 6.30837C9.25125 6.17635 8.94761 6.26595 8.81559 6.50849C8.68358 6.75103 8.77318 7.05467 9.01572 7.18669L9.49379 6.30837ZM13.2138 8.33318L9.49379 6.30837L9.01572 7.18669L12.7357 9.2115L13.2138 8.33318Z" fill="#3E3A39"/>
<path d="M8.75474 6.74752C8.75474 7.02367 8.97859 7.24752 9.25474 7.24752C9.53088 7.24752 9.75474 7.02367 9.75474 6.74752L8.75474 6.74752ZM9.75473 2.49761L9.75473 1.99761L8.75473 1.99761L8.75473 2.49761L9.75473 2.49761ZM9.75474 6.74752L9.75473 2.49761L8.75473 2.49761L8.75474 6.74752L9.75474 6.74752Z" fill="#3E3A39"/>
<rect width="13" height="6" transform="translate(0 10.0001)" fill="#201E1E"/>
<path d="M2.26719 11.6466V14.5001H1.81211V12.2169L1.2457 12.4513V12.0548L2.2125 11.6466H2.26719ZM4.375 14.1173V14.5001H2.73828V14.17L3.51367 13.1642C3.59831 13.0509 3.66341 12.9532 3.70898 12.8712C3.75586 12.7879 3.78841 12.713 3.80664 12.6466C3.82487 12.5802 3.83398 12.5151 3.83398 12.4513C3.83398 12.3628 3.82161 12.2846 3.79688 12.2169C3.77344 12.1492 3.73828 12.0965 3.69141 12.0587C3.64453 12.0197 3.58724 12.0001 3.51953 12.0001C3.4349 12.0001 3.36523 12.0229 3.31055 12.0685C3.25586 12.1128 3.21549 12.1746 3.18945 12.254C3.16341 12.3322 3.15039 12.422 3.15039 12.5236H2.69531C2.69531 12.3582 2.72721 12.2065 2.79102 12.0685C2.85612 11.9305 2.95052 11.8211 3.07422 11.7404C3.19792 11.6583 3.34831 11.6173 3.52539 11.6173C3.68945 11.6173 3.82812 11.6492 3.94141 11.713C4.05599 11.7768 4.14258 11.8673 4.20117 11.9845C4.26107 12.1017 4.29102 12.241 4.29102 12.4025C4.29102 12.491 4.27865 12.5795 4.25391 12.6681C4.23047 12.7553 4.19727 12.8419 4.1543 12.9279C4.11133 13.0138 4.05924 13.1004 3.99805 13.1876C3.93815 13.2749 3.87174 13.3634 3.79883 13.4532L3.30859 14.1173H4.375ZM4.96094 11.6564H5.39258L6.04688 13.7716L6.69922 11.6564H7.09961L6.22461 14.5001H5.86719L4.96094 11.6564ZM4.79883 11.6564H5.19727L5.26172 13.4669V14.5001H4.79883V11.6564ZM6.89258 11.6564H7.29297V14.5001H6.83008V13.4669L6.89258 11.6564ZM9.50234 11.6368H9.55312V12.0294H9.52578C9.38385 12.0294 9.26406 12.0555 9.16641 12.1075C9.06875 12.1583 8.98997 12.2293 8.93008 12.3204C8.87148 12.4103 8.82917 12.5157 8.80312 12.6368C8.77708 12.7566 8.76406 12.8849 8.76406 13.0216V13.4708C8.76406 13.5828 8.77318 13.6818 8.79141 13.7677C8.80964 13.8523 8.83503 13.924 8.86758 13.9825C8.90013 14.0398 8.93724 14.0828 8.97891 14.1115C9.02187 14.1401 9.0668 14.1544 9.11367 14.1544C9.16836 14.1544 9.21719 14.1401 9.26016 14.1115C9.30312 14.0828 9.33958 14.0431 9.36953 13.9923C9.40078 13.9402 9.42422 13.879 9.43984 13.8087C9.45547 13.7384 9.46328 13.6616 9.46328 13.5782C9.46328 13.4975 9.45547 13.422 9.43984 13.3517C9.42422 13.2814 9.40208 13.2202 9.37344 13.1681C9.34479 13.1147 9.30898 13.073 9.26602 13.0431C9.22305 13.0118 9.17292 12.9962 9.11562 12.9962C9.04401 12.9962 8.98021 13.0184 8.92422 13.0626C8.86823 13.1069 8.82331 13.1642 8.78945 13.2345C8.7569 13.3035 8.73802 13.3771 8.73281 13.4552L8.56289 13.3907C8.57461 13.271 8.5987 13.1635 8.63516 13.0685C8.67292 12.9734 8.72109 12.892 8.77969 12.8243C8.83828 12.7553 8.90599 12.7032 8.98281 12.6681C9.05964 12.6329 9.14362 12.6154 9.23477 12.6154C9.35065 12.6154 9.45156 12.6414 9.5375 12.6935C9.62344 12.7443 9.6944 12.8146 9.75039 12.9044C9.80638 12.993 9.8474 13.0945 9.87344 13.2091C9.90078 13.3224 9.91445 13.4415 9.91445 13.5665C9.91445 13.7032 9.89687 13.8309 9.86172 13.9493C9.82656 14.0665 9.77513 14.1694 9.70742 14.2579C9.63971 14.3465 9.55638 14.4155 9.45742 14.465C9.35846 14.5144 9.24583 14.5392 9.11953 14.5392C8.98932 14.5392 8.87344 14.5099 8.77187 14.4513C8.67161 14.3927 8.58633 14.312 8.51602 14.2091C8.44701 14.1062 8.39492 13.9878 8.35977 13.8536C8.32461 13.7195 8.30703 13.5769 8.30703 13.4259V13.2286C8.30703 13.0125 8.32786 12.8087 8.36953 12.6173C8.4125 12.4259 8.48021 12.2566 8.57266 12.1095C8.66641 11.9624 8.78945 11.8471 8.9418 11.7638C9.09414 11.6792 9.28099 11.6368 9.50234 11.6368ZM11.3734 14.0587V11.5001H11.8285V14.5001L11.4164 14.5021L11.3734 14.0587ZM10.2387 13.5294V13.3634C10.2387 13.1902 10.2543 13.0405 10.2855 12.9142C10.3168 12.7866 10.3624 12.6805 10.4223 12.5958C10.4835 12.5112 10.557 12.4487 10.643 12.4083C10.7289 12.368 10.8259 12.3478 10.934 12.3478C11.0395 12.3478 11.1306 12.3719 11.2074 12.42C11.2842 12.4669 11.3493 12.534 11.4027 12.6212C11.4561 12.7085 11.4984 12.8126 11.5297 12.9337C11.5622 13.0535 11.5844 13.1876 11.5961 13.3361V13.5665C11.5818 13.7098 11.559 13.8413 11.5277 13.9611C11.4965 14.0795 11.4542 14.1818 11.4008 14.2677C11.3474 14.3536 11.2816 14.4207 11.2035 14.4689C11.1267 14.5157 11.0362 14.5392 10.932 14.5392C10.824 14.5392 10.727 14.5177 10.641 14.4747C10.5564 14.4318 10.4835 14.368 10.4223 14.2833C10.3624 14.1987 10.3168 14.0939 10.2855 13.9689C10.2543 13.8426 10.2387 13.6961 10.2387 13.5294ZM10.6938 13.3634V13.5294C10.6938 13.6375 10.7003 13.7306 10.7133 13.8087C10.7263 13.8868 10.7471 13.9513 10.7758 14.0021C10.8044 14.0516 10.8422 14.0887 10.8891 14.1134C10.9359 14.1368 10.9926 14.1486 11.059 14.1486C11.1423 14.1486 11.21 14.1277 11.2621 14.0861C11.3155 14.0444 11.3565 13.9884 11.3852 13.9181C11.4151 13.8465 11.4359 13.767 11.4477 13.6798V13.2247C11.4411 13.1557 11.4281 13.0919 11.4086 13.0333C11.3891 12.9734 11.3637 12.9213 11.3324 12.8771C11.3012 12.8328 11.2628 12.7983 11.2172 12.7736C11.1729 12.7475 11.1208 12.7345 11.0609 12.7345C10.9945 12.7345 10.9379 12.7475 10.891 12.7736C10.8441 12.7983 10.8064 12.8367 10.7777 12.8888C10.7491 12.9396 10.7276 13.0047 10.7133 13.0841C10.7003 13.1622 10.6938 13.2553 10.6938 13.3634Z" fill="white"/>
</g>
<defs>
<clipPath id="clip0_1948_2956">
<rect width="16" height="16" fill="white"/>
</clipPath>
</defs>
</svg>
